<?xml version="1.0" encoding="utf-8"?>
<!-- Generator: Adobe Illustrator 21.0.0, SVG Export Plug-In . SVG Version: 6.00 Build 0)  -->
<svg version="1.1" id="Layer_1" xmlns="http://www.w3.org/2000/svg" xmlns:xlink="http://www.w3.org/1999/xlink" x="0px" y="0px"
	 viewBox="0 0 512 512" style="enable-background:new 0 0 512 512;" xml:space="preserve">
<style type="text/css">
	.st0{fill:#FBF7F2;}
	.st1{fill:#4CBA35;}
	.st2{fill:#7FABDA;}
	.st3{fill:#FFFFFF;}
	.st4{fill:#F8B563;}
	.st5{fill:#A4C9EB;}
	.st6{fill:#DBD6D2;}
</style>
<path class="st0" d="M82.4,503.3h347.1V0H82.4V503.3z"/>
<path class="st1" d="M117.2,503.3h277.7V34.7H117.2V503.3z"/>
<g>
	<path class="st2" d="M151.9,190.9h208.3V69.4H151.9V190.9z"/>
	<path class="st3" d="M342.8,182.2c0,5.2,3.5,8.7,8.7,8.7s8.7-3.5,8.7-8.7s-3.5-8.7-8.7-8.7S342.8,177,342.8,182.2L342.8,182.2z"/>
	<path class="st3" d="M290.7,182.2c0,5.2,3.5,8.7,8.7,8.7s8.7-3.5,8.7-8.7s-3.5-8.7-8.7-8.7S290.7,177,290.7,182.2L290.7,182.2z"/>
	<path class="st3" d="M342.8,130.2c0,5.2,3.5,8.7,8.7,8.7s8.7-3.5,8.7-8.7s-3.5-8.7-8.7-8.7C346.3,121.5,342.8,125,342.8,130.2
		L342.8,130.2z"/>
	<path class="st3" d="M290.7,130.2c0,5.2,3.5,8.7,8.7,8.7s8.7-3.5,8.7-8.7s-3.5-8.7-8.7-8.7S290.7,125,290.7,130.2L290.7,130.2z"/>
	<path class="st3" d="M316.7,156.2c0,5.2,3.5,8.7,8.7,8.7s8.7-3.5,8.7-8.7s-3.5-8.7-8.7-8.7C320.2,147.5,316.7,151,316.7,156.2
		L316.7,156.2z"/>
	<path class="st3" d="M264.7,156.2c0,5.2,3.5,8.7,8.7,8.7s8.7-3.5,8.7-8.7s-3.5-8.7-8.7-8.7S264.7,151,264.7,156.2L264.7,156.2z"/>
	<path class="st3" d="M316.7,104.1c0,5.2,3.5,8.7,8.7,8.7s8.7-3.5,8.7-8.7s-3.5-8.7-8.7-8.7S316.7,98.9,316.7,104.1L316.7,104.1z"/>
	<path class="st3" d="M264.7,104.1c0,5.2,3.5,8.7,8.7,8.7s8.7-3.5,8.7-8.7s-3.5-8.7-8.7-8.7S264.7,98.9,264.7,104.1L264.7,104.1z"/>
	<path class="st3" d="M238.6,182.2c0,5.2,3.5,8.7,8.7,8.7s8.7-3.5,8.7-8.7s-3.5-8.7-8.7-8.7S238.6,177,238.6,182.2L238.6,182.2z"/>
	<path class="st3" d="M186.6,182.2c0,5.2,3.5,8.7,8.7,8.7s8.7-3.5,8.7-8.7s-3.5-8.7-8.7-8.7S186.6,177,186.6,182.2L186.6,182.2z"/>
	<path class="st3" d="M238.6,130.2c0,5.2,3.5,8.7,8.7,8.7s8.7-3.5,8.7-8.7s-3.5-8.7-8.7-8.7S238.6,125,238.6,130.2L238.6,130.2z"/>
	<path class="st3" d="M186.6,130.2c0,5.2,3.5,8.7,8.7,8.7s8.7-3.5,8.7-8.7s-3.5-8.7-8.7-8.7C190,121.5,186.6,125,186.6,130.2
		L186.6,130.2z"/>
	<path class="st3" d="M212.6,156.2c0,5.2,3.5,8.7,8.7,8.7s8.7-3.5,8.7-8.7s-3.5-8.7-8.7-8.7C216.1,147.5,212.6,151,212.6,156.2
		L212.6,156.2z"/>
	<path class="st3" d="M160.5,156.2c0,5.2,3.5,8.7,8.7,8.7s8.7-3.5,8.7-8.7s-3.5-8.7-8.7-8.7S160.5,151,160.5,156.2L160.5,156.2z"/>
	<path class="st3" d="M212.6,104.1c0,5.2,3.5,8.7,8.7,8.7s8.7-3.5,8.7-8.7s-3.5-8.7-8.7-8.7S212.6,98.9,212.6,104.1L212.6,104.1z"/>
	<path class="st3" d="M160.5,104.1c0,5.2,3.5,8.7,8.7,8.7s8.7-3.5,8.7-8.7s-3.5-8.7-8.7-8.7S160.5,98.9,160.5,104.1L160.5,104.1z"/>
	<path class="st3" d="M342.8,78.1c0,5.2,3.5,8.7,8.7,8.7s8.7-3.5,8.7-8.7s-3.5-8.7-8.7-8.7C346.3,69.4,342.8,72.9,342.8,78.1
		L342.8,78.1z"/>
	<path class="st3" d="M290.7,78.1c0,5.2,3.5,8.7,8.7,8.7s8.7-3.5,8.7-8.7s-3.5-8.7-8.7-8.7S290.7,72.9,290.7,78.1L290.7,78.1z"/>
	<path class="st3" d="M238.6,78.1c0,5.2,3.5,8.7,8.7,8.7s8.7-3.5,8.7-8.7c0-5.2-3.5-8.7-8.7-8.7S238.6,72.9,238.6,78.1L238.6,78.1z"
		/>
	<path class="st3" d="M186.6,78.1c0,5.2,3.5,8.7,8.7,8.7s8.7-3.5,8.7-8.7s-3.5-8.7-8.7-8.7C190,69.4,186.6,72.9,186.6,78.1
		L186.6,78.1z"/>
</g>
<path class="st0" d="M325.4,286.4h34.7v-34.7h-34.7V286.4z"/>
<path class="st4" d="M325.4,277.7h-26c-5.2,0-8.7-3.5-8.7-8.7s3.5-8.7,8.7-8.7h26c5.2,0,8.7,3.5,8.7,8.7
	C334.1,274.2,330.6,277.7,325.4,277.7"/>
<g>
	<path class="st5" d="M203.9,78.1c0,5.2-3.5,8.7-8.7,8.7s-8.7-3.5-8.7-8.7s3.5-8.7,8.7-8.7C200.5,69.4,203.9,72.9,203.9,78.1"/>
	<path class="st5" d="M256,78.1c0,5.2-3.5,8.7-8.7,8.7s-8.7-3.5-8.7-8.7s3.5-8.7,8.7-8.7S256,72.9,256,78.1"/>
	<path class="st5" d="M308.1,78.1c0,5.2-3.5,8.7-8.7,8.7s-8.7-3.5-8.7-8.7s3.5-8.7,8.7-8.7S308.1,72.9,308.1,78.1"/>
	<path class="st5" d="M360.1,78.1c0,5.2-3.5,8.7-8.7,8.7s-8.7-3.5-8.7-8.7s3.5-8.7,8.7-8.7C356.7,69.4,360.1,72.9,360.1,78.1"/>
	<path class="st5" d="M177.9,104.1c0,5.2-3.5,8.7-8.7,8.7s-8.7-3.5-8.7-8.7s3.5-8.7,8.7-8.7S177.9,98.9,177.9,104.1"/>
	<path class="st5" d="M230,104.1c0,5.2-3.5,8.7-8.7,8.7s-8.7-3.5-8.7-8.7s3.5-8.7,8.7-8.7C226.5,95.5,230,98.9,230,104.1"/>
	<path class="st5" d="M177.9,156.2c0,5.2-3.5,8.7-8.7,8.7s-8.7-3.5-8.7-8.7s3.5-8.7,8.7-8.7S177.9,151,177.9,156.2"/>
	<path class="st5" d="M230,156.2c0,5.2-3.5,8.7-8.7,8.7s-8.7-3.5-8.7-8.7s3.5-8.7,8.7-8.7C226.5,147.5,230,151,230,156.2"/>
	<path class="st5" d="M203.9,130.2c0,5.2-3.5,8.7-8.7,8.7s-8.7-3.5-8.7-8.7s3.5-8.7,8.7-8.7C200.5,121.5,203.9,125,203.9,130.2"/>
	<path class="st5" d="M256,130.2c0,5.2-3.5,8.7-8.7,8.7s-8.7-3.5-8.7-8.7s3.5-8.7,8.7-8.7S256,125,256,130.2"/>
	<path class="st5" d="M203.9,182.2c0,5.2-3.5,8.7-8.7,8.7s-8.7-3.5-8.7-8.7s3.5-8.7,8.7-8.7C200.5,173.6,203.9,177,203.9,182.2"/>
	<path class="st5" d="M256,182.2c0,5.2-3.5,8.7-8.7,8.7s-8.7-3.5-8.7-8.7s3.5-8.7,8.7-8.7S256,177,256,182.2"/>
	<path class="st5" d="M282,104.1c0,5.2-3.5,8.7-8.7,8.7s-8.7-3.5-8.7-8.7s3.5-8.7,8.7-8.7S282,98.9,282,104.1"/>
	<path class="st5" d="M334.1,104.1c0,5.2-3.5,8.7-8.7,8.7s-8.7-3.5-8.7-8.7s3.5-8.7,8.7-8.7C330.6,95.5,334.1,98.9,334.1,104.1"/>
	<path class="st5" d="M282,156.2c0,5.2-3.5,8.7-8.7,8.7s-8.7-3.5-8.7-8.7s3.5-8.7,8.7-8.7S282,151,282,156.2"/>
	<path class="st5" d="M334.1,156.2c0,5.2-3.5,8.7-8.7,8.7s-8.7-3.5-8.7-8.7s3.5-8.7,8.7-8.7C330.6,147.5,334.1,151,334.1,156.2"/>
	<path class="st5" d="M308.1,130.2c0,5.2-3.5,8.7-8.7,8.7s-8.7-3.5-8.7-8.7s3.5-8.7,8.7-8.7S308.1,125,308.1,130.2"/>
	<path class="st5" d="M360.1,130.2c0,5.2-3.5,8.7-8.7,8.7s-8.7-3.5-8.7-8.7s3.5-8.7,8.7-8.7C356.7,121.5,360.1,125,360.1,130.2"/>
	<path class="st5" d="M308.1,182.2c0,5.2-3.5,8.7-8.7,8.7s-8.7-3.5-8.7-8.7s3.5-8.7,8.7-8.7S308.1,177,308.1,182.2"/>
	<path class="st5" d="M360.1,182.2c0,5.2-3.5,8.7-8.7,8.7s-8.7-3.5-8.7-8.7s3.5-8.7,8.7-8.7C356.7,173.6,360.1,177,360.1,182.2"/>
</g>
<path class="st6" d="M490.3,512H21.7c-5.2,0-8.7-3.5-8.7-8.7s3.5-8.7,8.7-8.7h468.6c5.2,0,8.7,3.5,8.7,8.7S495.5,512,490.3,512"/>
</svg>
