<svg id="Layer_1" data-name="Layer 1" xmlns="http://www.w3.org/2000/svg" viewBox="0 0 84.36 46.51"><defs><style>.cls-1{fill:#fff;}</style></defs><title>icon_white</title><path class="cls-1" d="M20.62,20.14a2.33,2.33,0,0,0-.14-1.78A2.76,2.76,0,0,0,17,17.48L2,23.07C.68,23.5.42,24,.42,24A2.89,2.89,0,0,0,0,25.66a2.9,2.9,0,0,0,.41,1.7s.26.46,1.56.89l15,5.59A2.76,2.76,0,0,0,20.48,33a2.33,2.33,0,0,0,.14-1.78,2.66,2.66,0,0,0-1.55-1.48l-10.75-4,10.75-4A2.65,2.65,0,0,0,20.62,20.14ZM83.95,24s-.26-.46-1.56-.89l-15-5.59a2.76,2.76,0,0,0-3.52.88,2.33,2.33,0,0,0-.14,1.78,2.65,2.65,0,0,0,1.55,1.48l10.75,4-10.75,4a2.65,2.65,0,0,0-1.55,1.48A2.33,2.33,0,0,0,63.88,33a2.76,2.76,0,0,0,3.52.88l15-5.59c1.3-.43,1.56-.89,1.56-.89a2.9,2.9,0,0,0,.41-1.7A2.9,2.9,0,0,0,83.95,24Z"/><path class="cls-1" d="M38.25,27.58V39l2.09,6.27,3.44,1.26L42.83,38l4.93-7.68,3.11-.35,3.44-7.83-6.58-2.81-.06,0-.81-2.4-6-4.29-4.36-.11-1.12.9-2.1-1.59,0-1.62L32,9.51l.64-2-1.3-.61L29.24,7.94l-2-1.74,1.16-2.5L19.53,0h-.26l4.45,8.21a1,1,0,0,0,.47.39l6.28,2.84,4.08,4.34-2.21,5.35,2.81,5.33Z"/></svg>