<svg id="Layer_1" data-name="Layer 1" xmlns="http://www.w3.org/2000/svg" viewBox="0 0 200 27.75"><defs><style>.cls-1{fill:#3fbc20;}.cls-2{fill:#535353;}</style></defs><title>logo</title><path class="cls-1" d="M12.3,12A1.39,1.39,0,0,0,12.22,11a1.65,1.65,0,0,0-2.1-.53L1.18,13.76c-.78.26-.93.53-.93.53a1.73,1.73,0,0,0-.25,1,1.73,1.73,0,0,0,.25,1s.15.27.93.53l8.94,3.34a1.65,1.65,0,0,0,2.1-.53,1.39,1.39,0,0,0,.08-1.06,1.58,1.58,0,0,0-.92-.88L5,15.31l6.41-2.41A1.58,1.58,0,0,0,12.3,12Zm37.78,2.3s-.15-.27-.93-.53l-8.94-3.34a1.65,1.65,0,0,0-2.1.53A1.39,1.39,0,0,0,38,12a1.58,1.58,0,0,0,.92.88l6.41,2.41L39,17.74a1.58,1.58,0,0,0-.92.88,1.39,1.39,0,0,0,.08,1.06,1.65,1.65,0,0,0,2.1.53l8.94-3.34c.78-.26.93-.53.93-.53a1.73,1.73,0,0,0,.25-1A1.73,1.73,0,0,0,50.08,14.31Z"/><path class="cls-2" d="M22.82,16.46v6.8L24.07,27l2.05.75-.56-5.1,2.94-4.58,1.85-.21,2.05-4.67-3.93-1.68,0,0L28,10.06,24.36,7.5l-2.6-.07L21.09,8,19.84,7l0-1-.73-.38.38-1.22-.78-.36-1.24.64-1.19-1L17,2.21,11.65,0H11.5l2.65,4.9a.61.61,0,0,0,.28.23l3.75,1.69,2.44,2.59L19.3,12.6,21,15.78Z"/><path class="cls-2" d="M54.3,18.39H61a1.12,1.12,0,0,0,.44-.16l1.83-1.82a.45.45,0,0,0,.15-.28V11.91a1.18,1.18,0,0,0-.23-.58L61.38,9.48l0,0H54s-.24,0-.24.19V18A.45.45,0,0,0,54.3,18.39Zm.58-7.94h6.06l1.28,1.29a.66.66,0,0,1,.15.44v3.7l-1.51,1.51h-6V11.17h0Zm68.31,7.79a.35.35,0,0,0,.29.13h5.71a.35.35,0,0,0,.29-.13l1.85-1.83a.68.68,0,0,0,.15-.29V11.61a.26.26,0,0,0-.06-.18l-2-2a.57.57,0,0,0-.35-.11h-5.45a.57.57,0,0,0-.35.11l-2,2a.26.26,0,0,0-.06.18v4.51a.68.68,0,0,0,.15.29Zm-.91-6.36,1.56-1.53h5l1.56,1.53V16L129,17.4h-5.27L122.28,16ZM79.91,18.31a.33.33,0,0,0,.23.08H85a.63.63,0,0,0,.48-.17l1.1-1.36c.28-.36,0-.53,0-.53L80.3,11.08l0,0,.47-.69h4.08l.76.84a.23.23,0,0,0,.32.08l.47-.48c.18-.18-.1-.44-.1-.44l-.25-.25-.65-.63a.44.44,0,0,0-.33-.1H80.55c-.17,0-.45.19-.45.19l-.3.36L78.94,11a.37.37,0,0,0,0,.44l6.3,5.17a.24.24,0,0,1,.09.24l-.45.55H80.46l-.1-.1-.85-.78c-.12-.09-.26.08-.26.08l-.43.47a.23.23,0,0,0,0,.25Zm23.28.07h.24s.42,0,.42-.25V14.44h5.32s.2,0,.2-.19v-.71s0-.19-.19-.19h-5.33V10.45h5l.44.44.17.18s.16.13.29,0l.53-.54a.14.14,0,0,0,0-.2l-.94-.88H103s-.22,0-.22.21v8.47S102.8,18.38,103.19,18.38Zm14.61-.25v-.53a.32.32,0,0,0-.31-.2H116V10.45h1.62s.21-.07.21-.21V9.56a.29.29,0,0,0-.22-.1h-4.29a.28.28,0,0,0-.22.1v.69c0,.14.21.21.21.21h1.62V17.4h-1.53a.32.32,0,0,0-.3.2v.53c0,.17.29.25.29.25h4.16S117.8,18.3,117.8,18.12Zm-43.6.25a.6.6,0,0,0,.45-.15l.84-.81c.27-.26.07-.41.07-.41l-.43-.41a.22.22,0,0,0-.35,0L74,17.4H68.62V14.34H73.9a.37.37,0,0,0,.34-.24v-.49a.49.49,0,0,0-.31-.26h-5.3V10.45h5.32l.74.75c.21.2.33.08.33.08l.56-.58c.06-.14-.15-.3-.15-.3l-.85-.83c-.1-.12-.19-.1-.19-.1h-6.5c-.32,0-.35.22-.35.22V18c0,.31.41.32.41.32Zm22-8.82a.6.6,0,0,0-.37-.18H92.93a.6.6,0,0,0-.37.18L90.21,12a.3.3,0,0,0-.11.21V18a.36.36,0,0,0,.39.36h.37c.27,0,.33-.35.33-.35V15.43l6.35,0V18s.06.35.33.35h.37a.36.36,0,0,0,.39-.36V12.18a.3.3,0,0,0-.11-.21Zm1.37,5.06-6.35,0V12.33l1.92-2h2.5l1.92,2Z"/><path class="cls-2" d="M144.27,15.87l-.09-.09s-.18-.17-.44.06l-1,.89h-3.64V9.49s-.17-.42-.53-.42h-1.47s-.45.14-.45.37v9.08a.48.48,0,0,0,.52.55h6.42a.9.9,0,0,0,.47-.12l1.41-1.34.07-.08s.19-.19-.06-.45Zm36.68-6.52a1.31,1.31,0,0,0-.77-.36H176.8a1.31,1.31,0,0,0-.77.36l-2.44,2.45a.86.86,0,0,0-.21.46v6.53c0,.2.29.28.29.28h1.92c.22,0,.28-.29.28-.29V16.65h5.25v2.12s.05.29.28.29h1.92s.29-.08.29-.28V12.26a.86.86,0,0,0-.21-.46Zm.17,5.21h-5.25V12.9l1.61-1.63h2l1.61,1.63ZM199.88,10l-1.3-1.22a.19.19,0,0,0-.29,0l-4.66,4.89L189,8.74a.19.19,0,0,0-.29,0L187.39,10a.42.42,0,0,0-.12.27v8.48a.33.33,0,0,0,.28.36h1.78a.35.35,0,0,0,.36-.36V12.89l3.76,4.06a.15.15,0,0,0,.13.08h.11a.15.15,0,0,0,.13-.08l3.76-4.06V18.7a.35.35,0,0,0,.36.36h1.78a.33.33,0,0,0,.28-.36V10.23A.42.42,0,0,0,199.88,10ZM170.67,9.4a.65.65,0,0,0-.47-.21h-8.62a.65.65,0,0,0-.47.21L160,10.47c-.22.22-.06.38-.06.38l.08.08,1.39,1.45a.29.29,0,0,0,.42,0l.82-.86h2v7.29c0,.2.25.29.25.29h2s.25-.09.25-.29V11.48h2l.81.86a.29.29,0,0,0,.42,0l1.39-1.45.08-.08s.16-.16-.06-.38Zm-14.94-.05A1.31,1.31,0,0,0,155,9h-3.37a1.31,1.31,0,0,0-.77.36l-2.44,2.45a.86.86,0,0,0-.21.46v6.53c0,.2.29.28.29.28h1.92c.22,0,.28-.29.28-.29V16.65h5.25v2.12s.05.29.28.29h1.92s.29-.08.29-.28V12.26a.86.86,0,0,0-.21-.46Zm.17,5.21h-5.25V12.9l1.61-1.63h2l1.61,1.63Z"/></svg>